<?xml version="1.0" encoding="UTF-8"?>
<svg id="Layer_1" data-name="Layer 1" xmlns="http://www.w3.org/2000/svg" xmlns:xlink="http://www.w3.org/1999/xlink" viewBox="0 0 165.73 176.27">
  <defs>
    <style>
      .cls-1 {
        fill: #db682f;
      }

      .cls-2 {
        fill: url(#linear-gradient);
      }
    </style>
    <linearGradient id="linear-gradient" x1="9.31" y1="56.84" x2="151.9" y2="56.84" gradientUnits="userSpaceOnUse">
      <stop offset="0" stop-color="#51612d"/>
      <stop offset=".05" stop-color="#58662f"/>
      <stop offset=".16" stop-color="#646f32"/>
      <stop offset=".28" stop-color="#687234"/>
      <stop offset=".67" stop-color="#7c8249"/>
      <stop offset=".89" stop-color="#687234"/>
      <stop offset="1" stop-color="#3f4f2b"/>
    </linearGradient>
  </defs>
  <path class="cls-1" d="M131.35,142.07c-8.73,0-17.46,.02-26.19-.02-1.48,0-5.44-1.38-6.3-2.2-1.56-1.5-1.4-2.14-1.33-4.01,.05-1.43,1.17-2.21,2.96-3.16,1.19-.63,4.45-1.08,5.95-1.08,13.55,0,27.09,.03,40.64,.03,5.91,0,6.63-1.04,4.2-6.62-5-11.52-13.91-18.02-26.32-19.16-12.31-1.13-22.51,3.78-28.86,14.11-5.24,8.51-8.63,18.15-12.89,27.26-5.31,11.35-12.73,20.66-24.56,25.93-14.54,6.47-35.74,2.62-46.6-8.69C-.2,151.69-3.5,132.87,3.94,118.17c8.39-16.57,24.91-25.5,42.63-23.25,7.84,.99,14.88,3.57,20.81,8.9,2.53,2.28,4.44,4.74,1.92,8.14-2.05,2.76-5.8,2.76-9.16,.14-12.89-10.05-30.64-8.48-41,3.63-10.47,12.23-9.7,30.47,1.75,41.28,12.11,11.44,29.45,11.41,41.6,.36,6.54-5.95,9.49-13.78,12.81-21.5,5-11.65,10.12-23.1,20.17-31.62,19.38-16.45,56.62-12.18,67.97,20,.99,2.82,1.57,5.81,2.09,8.77,1,5.75-1.67,8.99-7.53,9.05-8.88,.1-17.76,.03-26.64,.03v-.05Z"/>
  <path class="cls-2" d="M80.87,72.48c-3.49-13.51-1.85-26.55,5.36-38.48C99.5,12.04,119.63,1.46,144.98,.03c4.08-.23,5.82,.99,6.34,5.28,4.68,38.84-19.2,71.94-56.04,77.16-3.79,.54-6.04,1.98-6.99,5.7-1.16,4.52-2.34,9.04-3.85,13.44-1.31,3.84-3.09,7.52-5.01,12.08-2.91-7.36-5.3-13.41-7.69-19.45-1.29-3.26-3.37-4.73-7.18-4.8-32.95-.58-53.83-26.77-55.25-57.67-.01-.28,.16-.56,.25-.84,33.33-7.21,66.95,16.22,65.6,46.69-3.91-1.42-6.33-3.55-7.51-7.94-4.65-17.39-21.62-30.72-40.54-32.45-11.1-1.01-11.28-.95-7.76,9.63,6.47,19.48,20.18,30.81,40.16,34.79,.73,.15,1.5,.18,2.24,.16,.41-.01,.81-.25,1.75-.56-7.25-11.12-17.16-19.37-27.57-28.96,10.88,3.43,19.04,8.94,25.6,16.34,6.53,7.37,12.11,15.57,18.28,23.63,7.41-25.39,20.89-46.93,45.36-60.15-5.47,6.48-11.24,12.73-16.32,19.51-5.1,6.81-9.5,14.15-14.21,21.26,.32,.48,.64,.95,.96,1.43,3.2-.77,6.49-1.26,9.58-2.34,26.8-9.34,39.97-36.49,39.7-60.48-.04-3.3-1.38-4.13-4.41-3.84-28.25,2.74-55.43,26.77-54,56.51,.14,2.91-2.47,5.95-3.8,8.94-.61-.21-1.21-.41-1.82-.62Z"/>
  <path class="cls-1" d="M92.39,144.9c3.63,7.75,8.1,14.37,15.42,17.71,15.05,6.87,28.67,3.91,41.13-6.32,.69-.57,1.27-1.28,1.95-1.87,3.22-2.81,7-3.14,9.27-.57,2.92,3.3,1.1,6.01-1.32,8.65-16.91,18.44-49.12,17.95-67.49,1.02-6.19-5.71-5.58-5.24-2.03-11.3,1.04-1.78,2.13-4.34,3.06-7.32Z"/>
</svg>