<?xml version="1.0" encoding="UTF-8"?>
<svg id="Layer_1" data-name="Layer 1" xmlns="http://www.w3.org/2000/svg" xmlns:xlink="http://www.w3.org/1999/xlink" viewBox="0 0 226.05 277.71">
  <defs>
    <style>
      .cls-1 {
        fill: url(#linear-gradient-2);
      }

      .cls-2 {
        fill: #7f9d3d;
      }

      .cls-3 {
        fill: #254922;
      }

      .cls-4 {
        fill: #db682f;
      }

      .cls-5 {
        fill: url(#linear-gradient-3);
      }

      .cls-6 {
        fill: url(#linear-gradient);
      }
    </style>
    <linearGradient id="linear-gradient" x1="49.1" y1="72.61" x2="191.69" y2="72.61" gradientUnits="userSpaceOnUse">
      <stop offset="0" stop-color="#51612d"/>
      <stop offset=".05" stop-color="#58662f"/>
      <stop offset=".16" stop-color="#646f32"/>
      <stop offset=".28" stop-color="#687234"/>
      <stop offset=".67" stop-color="#7c8249"/>
      <stop offset=".89" stop-color="#687234"/>
      <stop offset="1" stop-color="#3f4f2b"/>
    </linearGradient>
    <linearGradient id="linear-gradient-2" x1="0" y1="110.15" x2="180.54" y2="110.15" gradientUnits="userSpaceOnUse">
      <stop offset="0" stop-color="#848851"/>
      <stop offset="0" stop-color="#81864f"/>
      <stop offset=".1" stop-color="#6f773c"/>
      <stop offset=".19" stop-color="#636e31"/>
      <stop offset=".28" stop-color="#606c2e"/>
      <stop offset=".67" stop-color="#43552a"/>
      <stop offset=".89" stop-color="#34412a"/>
      <stop offset="1" stop-color="#425123"/>
    </linearGradient>
    <linearGradient id="linear-gradient-3" x1="204.24" y1="109.55" x2="226.05" y2="109.55" xlink:href="#linear-gradient-2"/>
  </defs>
  <g>
    <path class="cls-4" d="M171.13,157.83c-8.73,0-17.46,.02-26.19-.02-1.48,0-5.44-1.38-6.3-2.2-1.56-1.5-1.4-2.14-1.33-4.01,.05-1.43,1.17-2.21,2.96-3.16,1.19-.63,4.45-1.08,5.95-1.08,13.55,0,27.09,.03,40.64,.03,5.91,0,6.63-1.04,4.2-6.62-5-11.52-13.91-18.02-26.32-19.16-12.31-1.13-22.51,3.78-28.86,14.11-5.24,8.51-8.63,18.15-12.89,27.26-5.31,11.35-12.73,20.66-24.56,25.93-14.54,6.47-35.74,2.62-46.6-8.69-12.26-12.76-15.56-31.57-8.12-46.27,8.39-16.57,24.91-25.5,42.63-23.25,7.84,.99,14.88,3.57,20.81,8.9,2.53,2.28,4.44,4.74,1.92,8.14-2.05,2.76-5.8,2.76-9.16,.14-12.89-10.05-30.64-8.48-41,3.63-10.47,12.23-9.7,30.47,1.75,41.28,12.11,11.44,29.45,11.41,41.6,.36,6.54-5.95,9.49-13.78,12.81-21.5,5-11.65,10.12-23.1,20.17-31.62,19.38-16.45,56.62-12.18,67.97,20,.99,2.82,1.57,5.81,2.09,8.77,1,5.75-1.67,8.99-7.53,9.05-8.88,.1-17.76,.03-26.64,.03v-.05Z"/>
    <path class="cls-6" d="M120.65,88.25c-3.49-13.51-1.85-26.55,5.36-38.48,13.27-21.97,33.41-32.54,58.75-33.98,4.08-.23,5.82,.99,6.34,5.28,4.68,38.84-19.2,71.94-56.04,77.16-3.79,.54-6.04,1.98-6.99,5.7-1.16,4.52-2.34,9.04-3.85,13.44-1.31,3.84-3.09,7.52-5.01,12.08-2.91-7.36-5.3-13.41-7.69-19.45-1.29-3.26-3.37-4.73-7.18-4.8-32.95-.58-53.83-26.77-55.25-57.67-.01-.28,.16-.56,.25-.84,33.33-7.21,66.95,16.22,65.6,46.69-3.91-1.42-6.33-3.55-7.51-7.94-4.65-17.39-21.62-30.72-40.54-32.45-11.1-1.01-11.28-.95-7.76,9.63,6.47,19.48,20.18,30.81,40.16,34.79,.73,.15,1.5,.18,2.24,.16,.41-.01,.81-.25,1.75-.56-7.25-11.12-17.16-19.37-27.57-28.96,10.88,3.43,19.04,8.94,25.6,16.34,6.53,7.37,12.11,15.57,18.28,23.63,7.41-25.39,20.89-46.93,45.36-60.15-5.47,6.48-11.24,12.73-16.32,19.51-5.1,6.81-9.5,14.15-14.21,21.26,.32,.48,.64,.95,.96,1.43,3.2-.77,6.49-1.26,9.58-2.34,26.8-9.34,39.97-36.49,39.7-60.48-.04-3.3-1.38-4.13-4.41-3.84-28.25,2.74-55.43,26.77-54,56.51,.14,2.91-2.47,5.95-3.8,8.94-.61-.21-1.21-.41-1.82-.62Z"/>
    <path class="cls-1" d="M180.54,197.03c-32.32,27.8-92.1,33.97-136.2,.27C2.39,165.25-13.72,106.42,13.24,57.03,38.65,10.48,92.07-6.98,130.29,2.48c-13-1.76-25.77-.59-38.5,2.37C38.36,17.3,1.72,70.18,13.6,125.6c12.17,56.76,64.29,92.5,121.85,83.75,7.37-1.12,14.5-3.85,21.74-5.85,7.78-2.15,15.56-4.31,23.34-6.46Z"/>
    <path class="cls-4" d="M132.18,160.66c3.63,7.75,8.1,14.37,15.42,17.71,15.05,6.87,28.67,3.91,41.13-6.32,.69-.57,1.27-1.28,1.95-1.87,3.22-2.81,7-3.14,9.27-.57,2.92,3.3,1.1,6.01-1.32,8.65-16.91,18.44-49.12,17.95-67.49,1.02-6.19-5.71-5.58-5.24-2.03-11.3,1.04-1.78,2.13-4.34,3.06-7.32Z"/>
    <path class="cls-5" d="M204.24,48.79c29.53,32.61,28.21,88.9,1.27,121.52,1.25-3.82,4.88-8.48,6.34-13.68,5.2-16.72,9.45-33.38,9.85-51-1.32-18.35-4.92-37.75-15.92-53.96-.38-.56-.66-1.2-1.56-2.87Z"/>
  </g>
  <g>
    <path class="cls-3" d="M34.52,250.45v5.23c-1.18,.34-2.23,.51-3.17,.51-3.23,0-5.84-1.08-7.85-3.26s-3.01-5.03-3.01-8.56c0-3.29,1.01-6,3.04-8.14,2.02-2.14,4.58-3.21,7.68-3.21,1.2,0,2.31,.14,3.31,.43v5.24c-1.07-.32-2.07-.48-3.02-.48-1.45,0-2.65,.59-3.61,1.78-.96,1.19-1.44,2.7-1.44,4.53,0,1.98,.48,3.54,1.44,4.69,.96,1.15,2.25,1.72,3.86,1.72,.79,0,1.71-.17,2.76-.5Z"/>
    <path class="cls-3" d="M38.13,233.64h5.58v16.92h4.42v5.09h-9.99v-22.01Z"/>
    <path class="cls-3" d="M51.9,233.64h11.28v4.68h-5.71v4.06h4.95v4.57h-4.95v4.01h5.74v4.7h-11.32v-22.01Z"/>
    <path class="cls-3" d="M80.52,250.45v5.23c-1.18,.34-2.23,.51-3.17,.51-3.23,0-5.84-1.08-7.85-3.26s-3.01-5.03-3.01-8.56c0-3.29,1.01-6,3.04-8.14,2.02-2.14,4.58-3.21,7.68-3.21,1.2,0,2.31,.14,3.31,.43v5.24c-1.07-.32-2.07-.48-3.02-.48-1.45,0-2.65,.59-3.61,1.78-.96,1.19-1.44,2.7-1.44,4.53,0,1.98,.48,3.54,1.44,4.69,.96,1.15,2.25,1.72,3.86,1.72,.79,0,1.71-.17,2.76-.5Z"/>
    <path class="cls-3" d="M84.13,233.64h5.58v10.35h.09l5.26-10.35h5.85l-5.71,11.24,5.47,10.77h-6.13l-4.75-9.15h-.09v9.15h-5.58v-22.01Z"/>
    <path class="cls-3" d="M112.93,233.64h11.28v4.68h-5.71v4.06h4.95v4.57h-4.95v4.01h5.74v4.7h-11.32v-22.01Z"/>
    <path class="cls-3" d="M127.86,246.02h8.48v4.12h-8.48v-4.12Z"/>
    <path class="cls-3" d="M142.23,233.64h7.05c1.01,4.75,1.8,8.83,2.37,12.25l.61-3.41c.25-1.33,.51-2.63,.79-3.89l1.09-4.95h7.2l2.8,22.01h-5.52l-1.49-15.13-3.44,15.13h-3.77l-3.61-15.17-1.44,15.17h-5.28l2.65-22.01Z"/>
    <path class="cls-3" d="M185.72,255.65h-5.8l-.94-3.68h-5.89l-.98,3.68h-5.69l6.51-22.01h6.26l6.52,22.01Zm-7.8-7.63c-.83-3.28-1.46-6.39-1.88-9.35h-.07c-.44,3.04-1.06,6.16-1.86,9.35h3.81Z"/>
    <path class="cls-3" d="M188.54,233.64h6.5c2.63,0,4.7,.6,6.22,1.81s2.28,2.85,2.28,4.93c0,1.07-.29,2.1-.87,3.09-.58,1-1.42,1.75-2.52,2.25l4.45,9.92h-5.89l-4.51-10.02h-.09v10.02h-5.58v-22.01Zm5.58,4.25v5.23c2.47-.04,3.7-.82,3.7-2.32,0-1.02-.29-1.75-.86-2.19-.57-.44-1.52-.68-2.84-.71Z"/>
    <path class="cls-3" d="M205.91,233.64h13.31v5.03h-3.85v16.98h-5.65v-16.98h-3.81v-5.03Z"/>
  </g>
  <g>
    <path class="cls-2" d="M21.59,266.94h2.75c1.77,0,3.07,.67,3.07,2.61,0,1-.44,1.97-1.2,2.29v.07c.95,.26,1.65,1.08,1.65,2.51,0,2.12-1.41,3.11-3.31,3.11h-2.98v-10.58Zm2.62,4.37c1.2,0,1.71-.58,1.71-1.49,0-1.02-.56-1.41-1.68-1.41h-1.12v2.91h1.09Zm.2,4.75c1.26,0,1.97-.56,1.97-1.75,0-1.11-.69-1.6-1.97-1.6h-1.29v3.34h1.29Z"/>
    <path class="cls-2" d="M29.46,266.94h2.9c1.79,0,3.17,.78,3.17,3.14s-1.38,3.31-3.17,3.31h-1.38v4.13h-1.53v-10.58Zm2.74,4.94c1.18,0,1.82-.6,1.82-1.81s-.64-1.64-1.82-1.64h-1.22v3.44h1.22Zm-.13,1l1.11-1.12,2.69,5.75h-1.72l-2.08-4.64Z"/>
    <path class="cls-2" d="M37.26,266.94h1.53v10.58h-1.53v-10.58Z"/>
    <path class="cls-2" d="M40.97,266.94h1.57l2.68,5.95,.89,2.26h.05c-.07-1.09-.19-2.43-.19-3.61v-4.59h1.45v10.58h-1.57l-2.68-5.96-.89-2.25h-.05c.07,1.12,.19,2.39,.19,3.57v4.63h-1.45v-10.58Z"/>
    <path class="cls-2" d="M49.16,272.26c0-3.46,1.79-5.52,4.08-5.52,1.22,0,2.06,.66,2.6,1.34l-.82,1.21c-.43-.52-.94-.92-1.74-.92-1.53,0-2.55,1.46-2.55,3.83s.91,3.88,2.64,3.88c.48,0,.95-.17,1.23-.47v-2.28h-1.62v-1.54h2.99v4.67c-.57,.71-1.57,1.25-2.75,1.25-2.32,0-4.06-1.95-4.06-5.45Z"/>
    <path class="cls-2" d="M57.88,266.94h1.53v10.58h-1.53v-10.58Z"/>
    <path class="cls-2" d="M61.6,266.94h1.57l2.68,5.95,.89,2.26h.05c-.07-1.09-.19-2.43-.19-3.61v-4.59h1.45v10.58h-1.57l-2.68-5.96-.89-2.25h-.05c.07,1.12,.19,2.39,.19,3.57v4.63h-1.45v-10.58Z"/>
    <path class="cls-2" d="M69.78,272.26c0-3.46,1.79-5.52,4.08-5.52,1.22,0,2.06,.66,2.6,1.34l-.82,1.21c-.43-.52-.94-.92-1.74-.92-1.53,0-2.55,1.46-2.55,3.83s.91,3.88,2.64,3.88c.48,0,.95-.17,1.23-.47v-2.28h-1.62v-1.54h2.99v4.67c-.57,.71-1.57,1.25-2.75,1.25-2.32,0-4.06-1.95-4.06-5.45Z"/>
    <path class="cls-2" d="M81.14,266.94h1.53v9h3.58v1.58h-5.1v-10.58Z"/>
    <path class="cls-2" d="M86.89,272.18c0-3.42,1.55-5.44,3.8-5.44s3.8,2.03,3.8,5.44-1.55,5.53-3.8,5.53-3.8-2.1-3.8-5.53Zm6.03,0c0-2.37-.87-3.81-2.23-3.81s-2.23,1.44-2.23,3.81,.87,3.89,2.23,3.89,2.23-1.52,2.23-3.89Z"/>
    <path class="cls-2" d="M95.77,272.26c0-3.46,1.76-5.52,3.95-5.52,1.08,0,1.94,.63,2.48,1.34l-.82,1.21c-.44-.54-.96-.92-1.63-.92-1.4,0-2.41,1.46-2.41,3.83s.93,3.88,2.37,3.88c.76,0,1.35-.43,1.84-1.09l.82,1.18c-.7,1-1.6,1.54-2.71,1.54-2.16,0-3.88-1.95-3.88-5.45Z"/>
    <path class="cls-2" d="M105.5,266.94h1.79l2.81,10.58h-1.62l-1.31-5.63c-.27-1.12-.53-2.33-.78-3.49h-.05c-.24,1.17-.49,2.37-.76,3.49l-1.32,5.63h-1.56l2.81-10.58Zm-1.15,6.24h4.06v1.47h-4.06v-1.47Z"/>
    <path class="cls-2" d="M111.08,266.94h1.53v9h3.58v1.58h-5.1v-10.58Z"/>
    <path class="cls-2" d="M120.33,266.94h1.73l1.52,5.17c.19,.67,.36,1.38,.55,2.08h.05c.19-.69,.35-1.4,.54-2.08l1.49-5.17h1.73v10.58h-1.4v-4.84c0-.98,.12-2.38,.19-3.36h-.05l-.7,2.46-1.42,4.75h-.91l-1.42-4.75-.68-2.46h-.05c.07,.98,.2,2.39,.2,3.36v4.84h-1.38v-10.58Z"/>
    <path class="cls-2" d="M131.83,266.94h1.79l2.81,10.58h-1.62l-1.31-5.63c-.27-1.12-.53-2.33-.78-3.49h-.05c-.24,1.17-.49,2.37-.76,3.49l-1.32,5.63h-1.56l2.81-10.58Zm-1.15,6.24h4.06v1.47h-4.06v-1.47Z"/>
    <path class="cls-2" d="M137.41,266.94h2.9c1.79,0,3.17,.78,3.17,3.14s-1.38,3.31-3.17,3.31h-1.38v4.13h-1.53v-10.58Zm2.74,4.94c1.18,0,1.82-.6,1.82-1.81s-.64-1.64-1.82-1.64h-1.22v3.44h1.22Zm-.13,1l1.11-1.12,2.69,5.75h-1.72l-2.08-4.64Z"/>
    <path class="cls-2" d="M145.21,266.94h1.53v4.81h.04l3.07-4.81h1.7l-2.65,4.13,3.1,6.45h-1.69l-2.33-4.98-1.24,1.89v3.09h-1.53v-10.58Z"/>
    <path class="cls-2" d="M153.08,266.94h5.18v1.58h-3.66v2.71h3.1v1.58h-3.1v3.13h3.79v1.58h-5.31v-10.58Z"/>
    <path class="cls-2" d="M161.9,268.52h-2.49v-1.58h6.5v1.58h-2.49v9h-1.53v-9Z"/>
    <path class="cls-2" d="M166.34,276.16l.89-1.29c.62,.72,1.44,1.21,2.24,1.21,.97,0,1.5-.54,1.5-1.37,0-.87-.56-1.15-1.34-1.56l-1.18-.63c-.85-.43-1.74-1.26-1.74-2.8,0-1.69,1.21-2.98,2.89-2.98,1.01,0,1.98,.51,2.66,1.35l-.79,1.19c-.55-.57-1.13-.91-1.87-.91-.82,0-1.35,.47-1.35,1.24,0,.83,.66,1.14,1.37,1.5l1.16,.6c1.02,.52,1.74,1.32,1.74,2.85,0,1.71-1.16,3.14-3.09,3.14-1.16,0-2.29-.56-3.1-1.55Z"/>
    <path class="cls-2" d="M176.29,272.18c0-3.42,1.55-5.44,3.8-5.44s3.8,2.03,3.8,5.44-1.55,5.53-3.8,5.53-3.8-2.1-3.8-5.53Zm6.03,0c0-2.37-.87-3.81-2.23-3.81s-2.23,1.44-2.23,3.81,.88,3.89,2.23,3.89,2.23-1.52,2.23-3.89Z"/>
    <path class="cls-2" d="M185.62,266.94h1.57l2.68,5.95,.89,2.26h.05c-.07-1.09-.2-2.43-.2-3.61v-4.59h1.45v10.58h-1.57l-2.68-5.96-.89-2.25h-.05c.07,1.12,.2,2.39,.2,3.57v4.63h-1.45v-10.58Z"/>
    <path class="cls-2" d="M194.26,266.94h1.53v9h3.58v1.58h-5.1v-10.58Z"/>
    <path class="cls-2" d="M200.87,266.94h1.53v10.58h-1.53v-10.58Z"/>
    <path class="cls-2" d="M204.59,266.94h1.57l2.68,5.95,.89,2.26h.05c-.07-1.09-.2-2.43-.2-3.61v-4.59h1.45v10.58h-1.57l-2.68-5.96-.89-2.25h-.05c.07,1.12,.2,2.39,.2,3.57v4.63h-1.45v-10.58Z"/>
    <path class="cls-2" d="M213.23,266.94h5.18v1.58h-3.66v2.71h3.1v1.58h-3.1v3.13h3.79v1.58h-5.31v-10.58Z"/>
  </g>
</svg>